<?xml version="1.0" standalone="no"?><!DOCTYPE svg PUBLIC "-//W3C//DTD SVG 1.1//EN" "http://www.w3.org/Graphics/SVG/1.1/DTD/svg11.dtd"><svg t="1698306955079" class="icon" viewBox="0 0 1024 1024" version="1.1" xmlns="http://www.w3.org/2000/svg" p-id="8137" xmlns:xlink="http://www.w3.org/1999/xlink" width="256" height="256"><path d="M838.5536 393.6768c-11.1616-165.0176-151.7056-295.936-322.9184-295.936-170.496 0-310.528 129.792-322.7648 293.7856-45.8752 19.5584-78.08 65.0752-78.08 118.016v131.6352c0 70.7072 57.5488 128.256 128.256 128.256h49.408c25.6512 0 46.4384-20.7872 46.4384-46.4384V427.7248c0-25.6512-20.7872-46.4384-46.4384-46.4384h-5.0688c16.7424-107.776 112.6912-190.6688 228.2496-190.6688 115.5584 0 211.5584 82.8928 228.2496 190.6688h-9.3184c-25.6512 0-46.4384 20.7872-46.4384 46.4384v295.2704c0 16.7936 8.96 31.488 22.3232 39.6288-30.3104 29.44-78.592 63.0784-146.688 72.704a49.24928 49.24928 0 0 0-29.3888-9.728h-33.8432c-27.3408 0-49.4592 22.1696-49.4592 49.4592 0 27.3408 22.1696 49.4592 49.4592 49.4592h33.8432c14.6432 0 27.8016-6.4 36.864-16.5376 129.536-16.896 203.3152-101.6832 230.4512-139.8784 62.3616-8.6528 110.5408-62.208 110.5408-126.8736V509.5424c-0.0512-51.2-30.2592-95.3344-73.6768-115.8656z" fill="#BD50D3" p-id="8138"></path><path d="M908.1344 477.8496a128.7168 128.7168 0 0 0-69.5808-84.1728c-11.1616-165.0176-151.7056-295.936-322.9184-295.936-170.496 0-310.528 129.792-322.7648 293.7856-45.8752 19.5584-78.08 65.0752-78.08 118.016v131.6352c0 70.7072 57.5488 128.256 128.256 128.256h49.408c25.6512 0 46.4384-20.7872 46.4384-46.4384V427.7248c0-25.6512-20.7872-46.4384-46.4384-46.4384h-5.0688c16.7424-107.776 112.6912-190.6688 228.2496-190.6688 115.5584 0 211.5584 82.8928 228.2496 190.6688h-9.3184c-25.6512 0-46.4384 20.7872-46.4384 46.4384v295.2704c0 6.0928 1.2288 11.8784 3.328 17.2032 95.8464-63.6416 171.8784-154.88 216.6784-262.3488z" fill="#BF5CD6" p-id="8139"></path><path d="M515.584 97.7408c-170.496 0-310.528 129.792-322.7648 293.7856-45.8752 19.5584-78.08 65.0752-78.08 118.016v112.7424c30.6688 4.9664 62.1568 7.5776 94.208 7.5776 44.6464 0 88.1152-5.0176 129.8944-14.5408V427.7248c0-25.6512-20.7872-46.4384-46.4384-46.4384h-5.0688c16.7424-107.776 112.6912-190.6688 228.2496-190.6688 92.4672 0 172.3392 53.0944 209.152 129.4848 17.5104-32.8704 32-67.584 43.0592-103.7824-59.3408-72.2432-150.3232-118.5792-252.2112-118.5792z" fill="#CA6EE0" p-id="8140"></path><path d="M515.584 190.6176c4.2496 0 8.448 0.1536 12.6464 0.3584 20.48-27.0336 38.656-55.9104 54.2208-86.3744a330.5984 330.5984 0 0 0-66.8672-6.8608c-170.496 0-310.528 129.792-322.7648 293.7856a127.32416 127.32416 0 0 0-36.9664 24.1152c46.08-7.424 90.3168-20.224 132.096-37.7856 18.2272-106.0864 113.3568-187.2384 227.6352-187.2384z" fill="#D786EA" p-id="8141"></path></svg>