<?xml version="1.0" standalone="no"?><!DOCTYPE svg PUBLIC "-//W3C//DTD SVG 1.1//EN" "http://www.w3.org/Graphics/SVG/1.1/DTD/svg11.dtd"><svg t="1699579034254" class="icon" viewBox="0 0 1024 1024" version="1.1" xmlns="http://www.w3.org/2000/svg" p-id="15261" xmlns:xlink="http://www.w3.org/1999/xlink" width="512" height="512"><path d="M512 512m-512 0a512 512 0 1 0 1024 0 512 512 0 1 0-1024 0Z" fill="#0391FD" p-id="15262"></path><path d="M417.109333 170.666667a270.051556 270.051556 0 0 0-44.202666 5.12 38.115556 38.115556 0 0 0-24.803556 17.066666 39.139556 39.139556 0 0 0 8.931556 31.232c29.411556 31.744 60.757333 61.724444 91.420444 92.273778 11.377778 11.377778 22.755556 21.902222 33.621333 33.166222a43.633778 43.633778 0 0 1 4.323556 63.544889 964.209778 964.209778 0 0 1-74.922667 75.264 47.900444 47.900444 0 0 1-67.299555-8.078222c-38.798222-38.286222-77.027556-77.084444-115.484445-115.655111a29.468444 29.468444 0 0 0-55.808 17.066667 237.112889 237.112889 0 0 0 214.414223 267.377777 356.124444 356.124444 0 0 0 87.665777-6.542222 49.152 49.152 0 0 1 47.900445 14.108445c39.082667 39.822222 78.961778 78.791111 118.613333 118.044444a50.517333 50.517333 0 0 0 83.114667 0q27.249778-27.079111 54.272-54.272a46.592 46.592 0 0 0 0.398222-72.590222 4608.739556 4608.739556 0 0 0-116.224-114.858667 58.197333 58.197333 0 0 1-18.204444-61.553778 238.250667 238.250667 0 0 0-188.074667-295.822222A373.304889 373.304889 0 0 0 417.109333 170.666667z" fill="#FFFFFF" p-id="15263"></path></svg>