<?xml version="1.0" standalone="no"?><!DOCTYPE svg PUBLIC "-//W3C//DTD SVG 1.1//EN" "http://www.w3.org/Graphics/SVG/1.1/DTD/svg11.dtd"><svg t="1698804032751" class="icon" viewBox="0 0 1024 1024" version="1.1" xmlns="http://www.w3.org/2000/svg" p-id="7843" xmlns:xlink="http://www.w3.org/1999/xlink" width="512" height="512"><path d="M682.24 97.7408H237.5168c-60.6208 0-109.7216 49.152-109.7216 109.7216v581.1712c0 60.6208 49.152 109.7216 109.7216 109.7216h236.8512c-37.8368-47.4624-60.5184-107.52-60.5184-172.9024 0-153.2928 124.2624-277.5552 277.5552-277.5552 35.4816 0 69.376 6.7072 100.5568 18.8416V207.4624c0-60.6208-49.152-109.7216-109.7216-109.7216z m-252.3648 421.5296H280.6784a45.056 45.056 0 0 1 0-90.112h149.248a45.056 45.056 0 1 1-0.0512 90.112z m215.7568-179.2H280.6784a45.056 45.056 0 0 1 0-90.112h365.0048c24.8832 0 45.056 20.1728 45.056 45.056s-20.224 45.056-45.1072 45.056z" fill="#3A9CED" p-id="7844"></path><path d="M691.4048 519.2192c-113.7152 0-206.2848 92.5184-206.2848 206.2336s92.5184 206.2848 206.2848 206.2848 206.2848-92.5184 206.2848-206.2848c-0.0512-113.7152-92.5696-206.2336-206.2848-206.2336z m86.6304 251.3408h-42.0352v42.0864a45.056 45.056 0 0 1-90.112 0v-42.0864h-42.0864a45.056 45.056 0 0 1 0-90.112h42.0864v-42.0352a45.056 45.056 0 0 1 90.112 0v42.0352h42.0352a45.056 45.056 0 0 1 0 90.112z" fill="#1B95E0" p-id="7845"></path><path d="M485.12 725.504c0 57.1392 23.3472 108.9024 61.0304 146.2784 35.7888-22.9376 69.12-49.3056 99.6352-78.592v-22.6304h-42.0864a45.056 45.056 0 0 1 0-90.112h42.0864v-42.0352a45.056 45.056 0 0 1 90.112 0v42.0352h3.3792c26.0096-39.7312 47.7184-82.4832 64.5632-127.6928a205.02016 205.02016 0 0 0-112.4864-33.4848c-113.664-0.0512-206.2336 92.4672-206.2336 206.2336z" fill="#3A9CED" p-id="7846"></path><path d="M280.6784 340.0704a45.056 45.056 0 0 1 0-90.112h365.0048c1.28 0 2.5088 0.1024 3.7376 0.2048 11.8272-48.896 18.176-99.8912 18.2272-152.4224h-430.08c-60.6208 0-109.7216 49.152-109.7216 109.7216v527.616c127.2832-21.1456 242.0224-79.4624 332.6464-163.4816a278.528 278.528 0 0 1 62.4128-66.56c40.2432-49.4592 73.2672-104.96 97.5872-164.9664H280.6784z m149.1968 179.2H280.6784a45.056 45.056 0 0 1 0-90.112h149.248a45.056 45.056 0 1 1-0.0512 90.112z" fill="#59ADF8" p-id="7847"></path><path d="M235.5712 295.0144a45.056 45.056 0 0 1 45.056-45.056H380.416c33.9968-46.4384 61.9008-97.536 82.6368-152.2176H237.5168c-60.6208 0-109.7216 49.152-109.7216 109.7216v248.9344a648.064 648.064 0 0 0 172.9024-116.3264h-19.968c-24.9856 0-45.1584-20.1728-45.1584-45.056z" fill="#6BC2FC" p-id="7848"></path></svg>