<?xml version="1.0" standalone="no"?><!DOCTYPE svg PUBLIC "-//W3C//DTD SVG 1.1//EN" "http://www.w3.org/Graphics/SVG/1.1/DTD/svg11.dtd"><svg t="1698804046170" class="icon" viewBox="0 0 1024 1024" version="1.1" xmlns="http://www.w3.org/2000/svg" p-id="8003" xmlns:xlink="http://www.w3.org/1999/xlink" width="512" height="512"><path d="M753.2032 116.3264H271.104c-84.1728 0-152.6784 68.5056-152.6784 152.6784v487.936c0 84.1728 68.5056 152.6784 152.6784 152.6784h482.0992c84.1728 0 152.6784-68.5056 152.6784-152.6784v-487.936c0-84.1728-68.5056-152.6784-152.6784-152.6784z m-44.7488 549.7856a43.6224 43.6224 0 0 1-31.1808 13.1072c-11.0592 0-22.0672-4.1472-30.5664-12.4928l-94.0544-92.2112v169.2672c0 24.1152-19.5584 43.6736-43.6736 43.6736s-43.6736-19.5584-43.6736-43.6736v-163.072l-84.1728 83.6096c-17.1008 16.9984-44.8 16.896-61.7984-0.2048-16.9984-17.1008-16.896-44.8 0.2048-61.7984l155.1872-154.1632c20.2752-20.1216 53.3504-20.224 73.728-0.2048l159.4368 156.3136c17.2032 16.9472 17.4592 44.6464 0.5632 61.8496z m-26.2144-308.3776H346.1632c-24.1152 0-43.6736-19.5584-43.6736-43.6736s19.5584-43.6736 43.6736-43.6736h336.0768c24.1152 0 43.6736 19.5584 43.6736 43.6736s-19.5584 43.6736-43.6736 43.6736z" fill="#6C6CEA" p-id="8004"></path><path d="M753.2032 116.3264H271.104c-84.1728 0-152.6784 68.5056-152.6784 152.6784v487.936c0 84.1728 68.5056 152.6784 152.6784 152.6784h146.8928c274.0736-72.8064 476.0064-322.6112 476.0064-619.5712 0-32.0512-2.4064-63.5392-6.912-94.3616-26.0096-47.2576-76.2368-79.36-133.888-79.36z m-44.7488 549.7856a43.6224 43.6224 0 0 1-31.1808 13.1072c-11.0592 0-22.0672-4.1472-30.5664-12.4928l-94.0544-92.2112v169.2672c0 24.1152-19.5584 43.6736-43.6736 43.6736s-43.6736-19.5584-43.6736-43.6736v-163.072l-84.1728 83.6096c-17.1008 16.9984-44.8 16.896-61.7984-0.2048-16.9984-17.1008-16.896-44.8 0.2048-61.7984l155.1872-154.1632c20.2752-20.1216 53.3504-20.224 73.728-0.2048l159.4368 156.3136c17.2032 16.9472 17.4592 44.6464 0.5632 61.8496z m-26.2144-308.3776H346.1632c-24.1152 0-43.6736-19.5584-43.6736-43.6736s19.5584-43.6736 43.6736-43.6736h336.0768c24.1152 0 43.6736 19.5584 43.6736 43.6736s-19.5584 43.6736-43.6736 43.6736z" fill="#757BF2" p-id="8005"></path><path d="M118.4256 269.0048v433.1008c68.864-4.352 134.7584-19.5072 196.0448-43.8784-11.8784-17.1008-10.24-40.6528 5.0176-55.808l155.1872-154.1632c20.2752-20.1216 53.3504-20.224 73.728-0.2048l23.2448 22.784c28.7744-34.7648 53.9648-72.6528 74.9568-113.0496H346.1632c-24.1152 0-43.6736-19.5584-43.6736-43.6736s19.5584-43.6736 43.6736-43.6736h336.0768c0.6144 0 1.2288 0.0512 1.8432 0.1024 16.7936-48.9472 27.8016-100.608 32.256-154.1632H271.104c-84.1728-0.0512-152.6784 68.4544-152.6784 152.6272z" fill="#8486F8" p-id="8006"></path><path d="M118.4256 269.0048v175.0528c70.5536-23.3984 135.68-58.7264 192.9216-103.6288a43.30496 43.30496 0 0 1-8.9088-26.368c0-24.1152 19.5584-43.6736 43.6736-43.6736h41.1136c42.1888-45.6704 77.8752-97.536 105.4208-154.0608H271.104c-84.1728 0-152.6784 68.5056-152.6784 152.6784z" fill="#8D92F8" p-id="8007"></path></svg>